<?xml version="1.0" encoding="UTF-8" standalone="no"?>
<!DOCTYPE svg PUBLIC "-//W3C//DTD SVG 1.1//EN" "http://www.w3.org/Graphics/SVG/1.1/DTD/svg11.dtd">
<svg version="1.1" xmlns="http://www.w3.org/2000/svg" xmlns:xlink="http://www.w3.org/1999/xlink" preserveAspectRatio="xMidYMid meet" viewBox="-0.9999999999998919 231.556906077348 190.23000000000002 54.89000000000004" width="186.23" height="50.89"><defs><path d="M99.39 273.43L99.39 283.29L98.43 283.29L92.35 274.92L92.35 283.29L91.34 283.29L91.34 273.43L92.49 273.43L98.38 281.56L98.38 273.43L99.39 273.43ZM108.29 278.67L108.29 277.69L102.96 277.69L102.96 274.43L108.42 274.43L108.42 273.43L101.91 273.43L101.91 283.29L108.48 283.29L108.48 282.33L102.96 282.33L102.96 278.67L108.29 278.67ZM113.7 274.43L113.7 283.29L114.76 283.29L114.76 274.43L118.45 274.43L118.45 273.43L110.01 273.43L110.01 274.43L113.7 274.43ZM126.95 273.43L126.05 273.43L123.4 281.58L120.81 273.43L119.73 273.43L122.91 283.35L123.83 283.35L126.47 275.14L129.14 283.35L130.04 283.35L133.21 273.43L132.19 273.43L129.59 281.58L126.95 273.43ZM139.1 283.45C135.95 283.45 134.15 281.88 134.15 278.35C134.15 274.84 135.95 273.27 139.1 273.27C142.26 273.27 144.07 274.84 144.07 278.35C144.07 281.88 142.26 283.45 139.1 283.45ZM139.1 274.27C136.42 274.27 135.2 275.7 135.2 278.36C135.2 281.04 136.42 282.48 139.1 282.48C141.79 282.48 143.02 281.04 143.02 278.36C143.02 275.7 141.79 274.27 139.1 274.27ZM153.65 283.29L152.53 283.29L150.19 279.27L147.24 279.27L147.24 283.29L146.22 283.29L146.22 273.43C148.77 273.43 150.19 273.43 150.47 273.43C152.76 273.43 153.8 274.35 153.8 276.3C153.8 278 152.99 279 151.27 279.23C151.27 279.23 152.06 280.58 153.65 283.29ZM150.45 274.4C150.23 274.4 149.16 274.4 147.24 274.4L147.24 278.31C149.19 278.31 150.27 278.31 150.48 278.31C151.88 278.31 152.75 277.89 152.75 276.33C152.75 274.8 151.91 274.4 150.45 274.4ZM162.04 273.43L157.06 278.87L157.06 273.43L156.03 273.43L156.03 283.29L157.06 283.29L157.06 280.21L159.03 278.06L162.55 283.29L163.73 283.29L159.72 277.3L163.25 273.43L162.04 273.43ZM166.14 275.89C166.14 274.72 166.9 274.23 168.67 274.23C169.79 274.23 170.84 274.53 171.54 275C171.6 274.91 172.05 274.23 172.1 274.15C171.32 273.62 170.21 273.27 168.67 273.27C166.33 273.27 165.1 274.01 165.1 275.92C165.1 277.91 166.54 278.27 168.67 278.64C170.44 278.96 171.61 279.16 171.61 280.56C171.61 281.92 170.71 282.49 168.67 282.49C167.49 282.49 166.33 282.23 165.14 281.49C165.09 281.57 164.67 282.21 164.61 282.29C165.86 283.11 167.21 283.42 168.7 283.42C171.38 283.42 172.63 282.47 172.63 280.52C172.63 278.4 171.08 278.09 168.92 277.7C167.17 277.38 166.14 277.14 166.14 275.89ZM186.23 232.83C186.23 233.14 186.23 235.63 186.23 235.94C185.14 235.82 184.04 235.76 182.94 235.76C171.5 235.76 171.76 241.06 171.76 247.66C171.76 249.09 171.76 256.26 171.76 269.16L168.49 269.16C168.49 256.26 168.49 249.09 168.49 247.66C168.49 238.9 169.08 232.69 182.94 232.69C184.13 232.69 185.22 232.74 186.23 232.83ZM36.09 266.81C24.58 266.81 24.65 261.51 24.65 255.24C24.65 253.78 24.65 246.51 24.65 233.41L21.31 233.41C21.31 246.47 21.31 253.72 21.31 255.17C21.31 263.67 22.16 269.88 36.09 269.88C49.94 269.88 50.53 263.67 50.53 254.91C50.53 253.48 50.53 246.31 50.53 233.41L47.26 233.41L47.26 254.91C47.44 262.84 43.71 266.81 36.09 266.81ZM56.06 247.66C56.06 249.09 56.06 256.26 56.06 269.16L59.33 269.16C59.33 256.26 59.33 249.09 59.33 247.66C59.33 241.06 59.07 235.76 70.51 235.76C82.01 235.76 81.94 241.06 81.94 247.33C81.94 248.79 81.94 256.06 81.94 269.16L85.28 269.16C85.28 256.1 85.28 248.85 85.28 247.39C85.28 238.9 84.43 232.69 70.51 232.69C56.65 232.69 56.06 238.9 56.06 247.66ZM91.34 233.47L91.34 269.16L94.54 269.16L94.54 233.47L91.34 233.47ZM100.53 269.16L100.53 233.47C110.56 233.47 116.13 233.47 117.24 233.47C125.53 233.47 129.28 237.59 129.28 244.91C129.28 252.28 125.57 256.76 117.2 256.76C116.3 256.76 111.81 256.76 103.73 256.76L103.73 269.16L100.53 269.16ZM117.29 253.55C123.06 253.55 125.93 250.74 125.93 245.06C125.93 239.38 122.83 236.68 117.15 236.68C116.25 236.68 111.78 236.68 103.73 236.68L103.73 253.55C111.87 253.55 116.39 253.55 117.29 253.55ZM136.21 251.77C136.28 260.47 138.43 266.94 149.74 266.94C155.75 266.94 158.5 265.31 161.44 263.15C161.62 263.39 163.09 265.32 163.27 265.57C160 267.99 156.15 269.88 149.74 269.88C135.62 269.88 133.01 261.71 133.01 251.19C133.01 240.66 136.01 232.56 149.48 232.56C163.4 232.56 163.86 241.9 163.79 251.77C163.79 251.77 138.97 251.77 136.21 251.77ZM149.41 235.57C139.41 235.57 136.67 240.99 136.28 248.77C137.9 248.77 146 248.77 160.59 248.77C160.07 239.97 156.34 235.57 149.41 235.57ZM1.24 273.83C0.81 273.83 0.4 273.82 0 273.81C0 274.12 0 276.58 0 276.89C0.4 276.9 0.81 276.91 1.24 276.91C15.1 276.91 15.69 270.7 15.69 261.94C15.69 260.04 15.69 250.53 15.69 233.41L12.42 233.41L12.42 261.94C12.59 269.87 8.87 273.83 1.24 273.83ZM178.83 269.23C177.65 269.19 176.7 268.24 176.66 267.06C176.7 265.81 177.74 264.83 178.98 264.87C180.18 264.91 181.13 265.87 181.17 267.06C181.12 268.31 180.08 269.28 178.83 269.23ZM178.92 265.1C177.83 265.1 176.95 265.98 176.95 267.06C176.95 268.14 177.83 269.03 178.92 269.03C180 269.02 180.88 268.14 180.88 267.06C180.88 265.98 180 265.1 178.92 265.1ZM180.02 268.36L179.64 268.36L179.06 267.36L178.34 267.36L178.34 268.36L177.99 268.36L177.99 265.77C178.68 265.77 179.07 265.77 179.14 265.77C179.8 265.77 180.06 266.04 180.06 266.55C180.06 266.96 179.88 267.25 179.43 267.34C179.51 267.47 179.7 267.81 180.02 268.36ZM179.13 266.1C179.08 266.1 178.81 266.1 178.34 266.1L178.34 267.04C178.82 267.04 179.09 267.04 179.14 267.04C179.5 267.04 179.7 266.93 179.7 266.56C179.7 266.18 179.5 266.1 179.13 266.1Z" id="c23HAwvYLS"></path></defs><g><g><use xlink:href="#c23HAwvYLS" opacity="1" fill="#ffffff" fill-opacity="1"></use><g><use xlink:href="#c23HAwvYLS" opacity="1" fill-opacity="0" stroke="#000000" stroke-width="1" stroke-opacity="0"></use></g></g></g></svg>